<svg width="32" height="32" viewBox="0 0 32 32" fill="none" xmlns="http://www.w3.org/2000/svg">
<rect width="31.2983" height="31.2983" rx="15.6492" fill="#F0A108"/>
<path d="M30.4642 15.7992C30.4642 7.70091 23.8995 1.13818 15.8012 1.13818C7.70295 1.13818 1.13818 7.70295 1.13818 15.7992C1.13818 23.8974 7.70295 30.4622 15.8012 30.4622C23.8995 30.4642 30.4642 23.8974 30.4642 15.7992Z" fill="white"/>
<path d="M18.1718 10.8057C17.8521 10.5883 16.7267 9.83379 16.2919 10.0896V10.0256C16.2235 10.0506 16.1611 10.0896 16.1086 10.1401C16.0561 10.1906 16.0147 10.2515 15.9871 10.3189C15.9594 10.3862 15.946 10.4587 15.9479 10.5315C15.9497 10.6043 15.9668 10.6759 15.9978 10.7417C16.0618 10.9847 16.2152 11.0487 16.471 11.1638C17.4692 11.5815 18.348 12.2407 19.0285 13.0819C19.9228 14.1658 20.4352 15.5141 20.4864 16.9183C20.5057 17.2121 20.5057 17.5069 20.4864 17.8007C20.448 18.0948 20.3713 18.3122 20.5631 18.5296C20.6433 18.6272 20.7559 18.6926 20.8805 18.7137C21.005 18.7349 21.1329 18.7103 21.2408 18.6446C21.4454 18.5295 21.535 18.3634 21.535 18.0692C21.749 16.0973 21.2049 14.1177 20.0132 12.5321C19.4989 11.8589 18.8767 11.2755 18.1718 10.8057Z" fill="#F0A108"/>
<path d="M16.893 12.4937C16.6297 12.3068 16.3352 12.1682 16.0234 12.0845V12.0205C15.9214 12.0044 15.8168 12.0181 15.7223 12.0599C15.6278 12.1018 15.5474 12.17 15.4907 12.2564C15.434 12.3428 15.4035 12.4437 15.4027 12.5471C15.4019 12.6504 15.4309 12.7517 15.4863 12.839C15.5758 13.1331 15.9339 13.2226 16.2024 13.3888C16.8997 13.8056 17.4704 14.4043 17.8534 15.1206C18.2364 15.837 18.4171 16.6441 18.3764 17.4554C18.3322 17.6433 18.3644 17.841 18.4659 18.0052C18.6961 18.3122 19.4506 18.4272 19.4506 17.5193C19.5096 16.1269 19.0544 14.7614 18.1718 13.6829C17.8124 13.2202 17.3806 12.8186 16.893 12.4937Z" fill="#F0A108"/>
<path d="M17.886 25.6C19.0492 25.7519 20.2316 25.5659 21.292 25.0642C23.2741 24.2074 22.2639 23.2099 21.6756 22.2892C21.2641 21.6826 20.8157 21.1017 20.3329 20.55L20.1539 20.3326C19.9604 20.1509 19.7768 19.9587 19.604 19.7572C19.3994 19.6804 19.2971 19.5142 18.9646 19.5909C18.4455 19.855 17.9812 20.2152 17.5963 20.6523C17.4725 20.8056 17.315 20.9281 17.136 21.0104C17.0392 21.0609 16.9318 21.0872 16.8227 21.0872C16.7136 21.0872 16.6061 21.0609 16.5094 21.0104C16.195 20.7937 15.9073 20.5404 15.6525 20.2559C14.6534 19.0812 13.795 17.7937 13.095 16.4196C12.4455 15.3225 12.0114 14.1116 11.8162 12.8518C11.9568 12.1101 13.0566 12.2123 13.939 11.7648C14.3738 11.5474 14.5272 11.3045 14.3737 10.7034C14.1308 9.70597 13.7344 9.05373 13.517 8.32482C13.3635 8.20973 12.8903 6.70083 12.366 6.39392C11.4709 5.8824 10.0131 7.35294 9.47605 8.00512C8.68676 8.93772 8.21622 10.0983 8.13326 11.3172C7.91587 14.3991 10.2177 18.3761 11.4965 20.371C12.3708 21.8089 13.4622 23.103 14.7318 24.2074C15.6278 24.9647 16.7227 25.4481 17.886 25.6Z" fill="#F0A108"/>
<path d="M23.6449 18.2867V18.2866V18.2227C23.8572 16.2264 23.451 14.2131 22.4813 12.4554C22.3278 12.1996 22.1999 11.9566 22.0465 11.7264C21.7283 11.2754 21.3778 10.848 20.9978 10.4476C20.7037 10.1919 20.7038 10.1279 20.3969 9.87218C19.7733 9.29852 19.0715 8.81631 18.3124 8.43994C17.917 8.2116 17.4839 8.05572 17.0336 7.9796C16.8035 8.00518 16.7907 8.17137 16.6628 8.17137C16.5899 8.32227 16.5674 8.49267 16.5989 8.65732C16.7012 9.02816 17.2254 9.1177 17.6602 9.32231C18.2915 9.62 18.8842 9.99361 19.425 10.4348L19.5912 10.5627L19.8981 10.8313C20.2364 11.1603 20.5485 11.5152 20.8317 11.8927C22.1805 13.6436 22.8074 15.8447 22.5836 18.0436C22.5836 18.3506 22.4302 18.7726 22.5836 19.0283C22.6234 19.0895 22.6753 19.1419 22.736 19.1824C22.7968 19.2229 22.8651 19.2506 22.9369 19.2637C23.0088 19.2769 23.0825 19.2753 23.1537 19.259C23.2249 19.2427 23.2919 19.2121 23.3508 19.169C23.6449 18.9644 23.6449 18.6959 23.6449 18.2867Z" fill="#F0A108"/>
</svg>
