<svg width="47" height="122" viewBox="0 0 47 122" fill="none" xmlns="http://www.w3.org/2000/svg">
<path d="M0 10C0 4.47716 4.47715 0 10 0H47V122H10C4.47715 122 0 117.523 0 112V10Z" fill="#5B2A1F"/>
<path d="M30.0403 19.9833C30.0403 19.5896 29.7217 19.271 29.3281 19.271H16.8683C16.4746 19.271 16.156 19.5896 16.156 19.9833C16.156 20.3769 16.4746 20.6955 16.8683 20.6955H29.3281C29.7217 20.6955 30.0403 20.3769 30.0403 19.9833Z" fill="#F0A108"/>
<path d="M26.704 24.2406C26.704 23.847 26.3853 23.5283 25.9917 23.5283H16.8683C16.4746 23.5283 16.156 23.847 16.156 24.2406C16.156 24.6342 16.4746 24.9528 16.8683 24.9528H25.9941C26.3853 24.9505 26.704 24.6319 26.704 24.2406Z" fill="#F0A108"/>
<path d="M16.8683 27.7969C16.4746 27.7969 16.156 28.1155 16.156 28.5091C16.156 28.9027 16.4746 29.2214 16.8683 29.2214H21.2707C21.6643 29.2214 21.9829 28.9027 21.9829 28.5091C21.9829 28.1155 21.6643 27.7969 21.2707 27.7969H16.8683Z" fill="#F0A108"/>
<path d="M31.4953 31.3585C31.4953 32.1434 30.858 32.7807 30.0731 32.7807H15.8443C15.0595 32.7807 14.4222 32.1434 14.4222 31.3585V17.8443C14.4222 17.0595 15.0595 16.4222 15.8443 16.4222H16.5566C16.5753 16.4222 16.5964 16.4222 16.6152 16.4198H29.3023C29.321 16.4222 29.3421 16.4222 29.3608 16.4222H30.0731C30.858 16.4222 31.4953 17.0595 31.4953 17.8443V18.4231L32.9174 18.252V17.8443C32.9174 16.2722 31.6429 15 30.0731 15H30.0356H29.3608H16.5566H16.1044H15.8443C14.2746 14.9977 13 16.2722 13 17.8443V31.3608C13 32.933 14.2746 34.2052 15.8443 34.2052H30.0708C31.6429 34.2052 32.9151 32.9306 32.9151 31.3608V27.2068L31.4929 27.3778L31.4953 31.3585Z" fill="#F0A108"/>
<path d="M35.7758 21.1642L34.0725 19.4609C33.8265 19.2149 33.4282 19.2149 33.1822 19.4609L32.1747 20.4683C32.17 20.473 32.1653 20.4777 32.1606 20.4824L34.7543 23.076C34.759 23.0714 34.7637 23.0667 34.7684 23.062L35.7758 22.0545C36.0218 21.8085 36.0218 21.4102 35.7758 21.1642Z" fill="#F0A108"/>
<path d="M25.4013 27.2164L25.3943 29.8053L28.0465 29.81L34.1897 23.6668L31.5726 21.0474L25.4013 27.2164ZM28.1871 28.4675L27.4209 28.5261L27.4865 27.7013L26.6735 27.7271L26.779 27.0196L27.6951 26.1035L29.1219 27.5303L28.1871 28.4675ZM31.7648 22.2891C31.8491 22.3735 31.8491 22.507 31.7648 22.5914L28.4917 25.8645C28.4073 25.9488 28.2738 25.9488 28.1894 25.8645C28.1051 25.7801 28.1051 25.6466 28.1894 25.5622L31.4649 22.2868C31.5469 22.2048 31.6828 22.2048 31.7648 22.2891Z" fill="#F0A108"/>
<path d="M18.2959 58H16.4258L15.2197 55.7197C15.1742 55.6351 15.127 55.4788 15.0781 55.251H15.0586C15.0358 55.3584 14.9821 55.5212 14.8975 55.7393L13.6865 58H11.8066L14.0381 54.499L11.9971 50.998H13.916L14.917 53.0977C14.9951 53.2637 15.0651 53.4606 15.127 53.6885H15.1465C15.1855 53.5518 15.2588 53.3483 15.3662 53.0781L16.4795 50.998H18.2373L16.1377 54.4697L18.2959 58ZM23.3301 58H19.1309V50.998H23.1689V52.2822H20.708V53.8398H22.998V55.1191H20.708V56.7207H23.3301V58ZM32.4316 58H30.874V53.8105C30.874 53.3581 30.8936 52.8584 30.9326 52.3115H30.8936C30.8122 52.7412 30.7389 53.0505 30.6738 53.2393L29.0332 58H27.7441L26.0742 53.2881C26.0286 53.1611 25.9554 52.8356 25.8545 52.3115H25.8105C25.8529 53.0016 25.874 53.6071 25.874 54.1279V58H24.4531V50.998H26.7627L28.1934 55.1484C28.3073 55.4805 28.3903 55.8141 28.4424 56.1494H28.4717C28.5596 55.762 28.6523 55.4251 28.75 55.1387L30.1807 50.998H32.4316V58ZM16.2646 71H14.707V66.8105C14.707 66.3581 14.7266 65.8584 14.7656 65.3115H14.7266C14.6452 65.7412 14.5719 66.0505 14.5068 66.2393L12.8662 71H11.5771L9.90723 66.2881C9.86165 66.1611 9.78841 65.8356 9.6875 65.3115H9.64355C9.68587 66.0016 9.70703 66.6071 9.70703 67.1279V71H8.28613V63.998H10.5957L12.0264 68.1484C12.1403 68.4805 12.2233 68.8141 12.2754 69.1494H12.3047C12.3926 68.762 12.4854 68.4251 12.583 68.1387L14.0137 63.998H16.2646V71ZM22.0557 71H17.8564V63.998H21.8945V65.2822H19.4336V66.8398H21.7236V68.1191H19.4336V69.7207H22.0557V71ZM29.4775 71H27.8857L25 66.6006C24.8307 66.3434 24.7135 66.1497 24.6484 66.0195H24.6289C24.6549 66.2669 24.668 66.6445 24.668 67.1523V71H23.1787V63.998H24.8779L27.6562 68.2607C27.7832 68.4528 27.9004 68.6432 28.0078 68.832H28.0273C28.0013 68.6693 27.9883 68.3486 27.9883 67.8701V63.998H29.4775V71ZM36.7871 67.9678C36.7871 70.0706 35.8073 71.1221 33.8477 71.1221C31.9466 71.1221 30.9961 70.0951 30.9961 68.041V63.998H32.5781V68.0605C32.5781 69.1934 33.0208 69.7598 33.9062 69.7598C34.7754 69.7598 35.21 69.2129 35.21 68.1191V63.998H36.7871V67.9678ZM11.3818 84.1221C10.3792 84.1221 9.56217 83.7965 8.93066 83.1455C8.29915 82.488 7.9834 81.6367 7.9834 80.5918C7.9834 79.4883 8.30404 78.5931 8.94531 77.9062C9.58333 77.2227 10.4329 76.8809 11.4941 76.8809C12.4935 76.8809 13.3008 77.208 13.916 77.8623C14.5345 78.5133 14.8438 79.376 14.8438 80.4502C14.8438 81.5472 14.5231 82.4342 13.8818 83.1113C13.859 83.1341 13.8379 83.1569 13.8184 83.1797C13.7988 83.1992 13.7777 83.2188 13.7549 83.2383L15.5273 84.9424H13.3203L12.3926 84C12.0866 84.0814 11.7497 84.1221 11.3818 84.1221ZM11.4502 78.2383C10.9001 78.2383 10.4606 78.4466 10.1318 78.8633C9.80632 79.2767 9.64355 79.8252 9.64355 80.5088C9.64355 81.2021 9.80632 81.7507 10.1318 82.1543C10.4574 82.5579 10.8838 82.7598 11.4111 82.7598C11.9548 82.7598 12.3861 82.5645 12.7051 82.1738C13.0241 81.7767 13.1836 81.2314 13.1836 80.5381C13.1836 79.8154 13.029 79.2507 12.7197 78.8438C12.4137 78.4401 11.9906 78.2383 11.4502 78.2383ZM21.7188 80.9678C21.7188 83.0706 20.7389 84.1221 18.7793 84.1221C16.8783 84.1221 15.9277 83.0951 15.9277 81.041V76.998H17.5098V81.0605C17.5098 82.1934 17.9525 82.7598 18.8379 82.7598C19.707 82.7598 20.1416 82.2129 20.1416 81.1191V76.998H21.7188V80.9678ZM29.4043 84H27.6855L27.1875 82.4424H24.6973L24.2041 84H22.4951L25.0439 76.998H26.9141L29.4043 84ZM26.8262 81.2314L26.0742 78.8779C26.0189 78.7021 25.9798 78.4922 25.957 78.248H25.918C25.9017 78.4531 25.861 78.6566 25.7959 78.8584L25.0342 81.2314H26.8262ZM27.5049 74.7715L25.9766 76.3486H24.8633L26.1328 74.7715H27.5049ZM36.5771 84H34.9854L32.0996 79.6006C31.9303 79.3434 31.8132 79.1497 31.748 79.0195H31.7285C31.7546 79.2669 31.7676 79.6445 31.7676 80.1523V84H30.2783V76.998H31.9775L34.7559 81.2607C34.8828 81.4528 35 81.6432 35.1074 81.832H35.127C35.1009 81.6693 35.0879 81.3486 35.0879 80.8701V76.998H36.5771V84ZM21.582 97.751C21.071 97.9984 20.4036 98.1221 19.5801 98.1221C18.5059 98.1221 17.6611 97.8063 17.0459 97.1748C16.4307 96.5433 16.123 95.7018 16.123 94.6504C16.123 93.5306 16.4681 92.6224 17.1582 91.9258C17.8516 91.2292 18.75 90.8809 19.8535 90.8809C20.5371 90.8809 21.1133 90.9671 21.582 91.1396V92.6582C21.1133 92.3783 20.5794 92.2383 19.9805 92.2383C19.3229 92.2383 18.7923 92.445 18.3887 92.8584C17.985 93.2718 17.7832 93.8317 17.7832 94.5381C17.7832 95.2152 17.9736 95.7555 18.3545 96.1592C18.7354 96.5596 19.248 96.7598 19.8926 96.7598C20.5078 96.7598 21.071 96.61 21.582 96.3105V97.751ZM28.5107 94.9678C28.5107 97.0706 27.5309 98.1221 25.5713 98.1221C23.6702 98.1221 22.7197 97.0951 22.7197 95.041V90.998H24.3018V95.0605C24.3018 96.1934 24.7445 96.7598 25.6299 96.7598C26.499 96.7598 26.9336 96.2129 26.9336 95.1191V90.998H28.5107V94.9678ZM27.373 89.0693C27.373 89.5251 27.2819 89.8783 27.0996 90.1289C26.9206 90.3763 26.6748 90.5 26.3623 90.5C26.0824 90.5 25.8089 90.43 25.542 90.29C25.2523 90.137 25.0521 90.0605 24.9414 90.0605C24.681 90.0605 24.5508 90.2363 24.5508 90.5879H23.8623C23.8623 90.1354 23.9518 89.7839 24.1309 89.5332C24.3099 89.2826 24.5605 89.1572 24.8828 89.1572C25.1465 89.1572 25.4199 89.237 25.7031 89.3965C25.9603 89.5397 26.1556 89.6113 26.2891 89.6113C26.543 89.6113 26.6699 89.4307 26.6699 89.0693H27.373Z" fill="#F0A108"/>
</svg>
