<svg width="32" height="32" viewBox="0 0 32 32" fill="none" xmlns="http://www.w3.org/2000/svg">
<rect width="31.2983" height="31.2983" rx="15.6492" fill="white"/>
<path d="M30.4642 15.7992C30.4642 7.70091 23.8995 1.13818 15.8012 1.13818C7.70295 1.13818 1.13818 7.70295 1.13818 15.7992C1.13818 23.8974 7.70295 30.4622 15.8012 30.4622C23.8995 30.4642 30.4642 23.8974 30.4642 15.7992Z" fill="white"/>
<path d="M7.41359 18.2554C8.496 18.2554 9.50607 18.2492 10.5163 18.2578C11.0837 18.2627 11.3904 18.5035 11.4426 18.949C11.5088 19.513 11.1786 19.8874 10.5657 19.8942C9.40958 19.9074 8.25332 19.8993 7.09706 19.8993C6.76335 19.8993 6.42883 19.9109 6.09616 19.8918C5.68129 19.8679 5.27547 19.7862 5.07715 19.3593C4.87883 18.9324 5.01642 18.5484 5.29103 18.2C6.39589 16.7991 7.50145 15.3988 8.6077 13.9991C8.6733 13.916 8.7367 13.8311 8.80056 13.7479C8.7331 13.6262 8.62581 13.6806 8.54244 13.6803C7.76773 13.6754 6.99291 13.6809 6.2182 13.6747C6.03982 13.6764 5.86191 13.6562 5.68849 13.6145C5.52373 13.5777 5.37647 13.4861 5.27094 13.3547C5.16542 13.2233 5.10792 13.06 5.10792 12.8916C5.10484 12.7233 5.15934 12.5589 5.26246 12.4255C5.36557 12.2921 5.51115 12.1977 5.67525 12.1577C5.84802 12.1127 6.02605 12.0909 6.20461 12.0929C7.48039 12.0877 8.75582 12.0875 10.0309 12.0923C10.2576 12.0822 10.4844 12.1098 10.702 12.174C11.1855 12.3405 11.3987 12.7848 11.2019 13.2555C11.0145 13.654 10.7734 14.0253 10.4854 14.359C9.55027 15.5454 8.61362 16.7304 7.67542 17.9139C7.60274 18.006 7.53272 18.1002 7.41417 18.2554" fill="#F0A108"/>
<path d="M14.1606 20.1027C13.8826 20.0996 13.6069 20.0531 13.3435 19.9649C13.0495 19.8725 12.7723 19.7335 12.5228 19.553C12.2993 19.3884 12.1053 19.1871 11.9492 18.9579C11.7945 18.7276 11.6731 18.4768 11.5885 18.2128C11.499 17.9323 11.438 17.6435 11.4067 17.3508C11.2491 15.9701 11.7522 14.8967 12.8618 14.2464C13.2497 14.0056 13.6954 13.8732 14.1522 13.8633C14.6994 13.8633 15.2237 14.0782 15.711 14.5022C15.8688 14.304 16.0478 14.0799 16.3527 14.0177C16.4205 14.0039 16.4896 13.9968 16.5589 13.9968C16.7892 13.9941 17.0122 14.0772 17.1843 14.2298C17.2692 14.3068 17.337 14.4005 17.3836 14.5051C17.4302 14.6097 17.4544 14.7227 17.4548 14.8372C17.473 16.2263 17.4671 17.5959 17.4583 19.1136C17.4587 19.2939 17.4011 19.4695 17.2941 19.6147C17.187 19.76 17.036 19.8672 16.8633 19.9206C16.7605 19.956 16.6525 19.9743 16.5437 19.9747C16.4125 19.9755 16.2829 19.9462 16.165 19.8889C16.0471 19.8316 15.944 19.748 15.8638 19.6445C15.7952 19.5581 15.7502 19.5144 15.6941 19.5144C15.629 19.5243 15.569 19.5554 15.5235 19.6028C15.3269 19.7643 15.1045 19.8919 14.8657 19.9804C14.6396 20.0619 14.401 20.1032 14.1606 20.1027ZM14.4251 15.5404C14.2731 15.5374 14.1221 15.565 13.9811 15.6216C13.8401 15.6783 13.712 15.7627 13.6046 15.87C13.3243 16.1517 13.1784 16.5802 13.1825 17.1094C13.1943 17.42 13.2991 17.7199 13.4834 17.9706C13.5928 18.1155 13.7346 18.233 13.8974 18.3138C14.0602 18.3947 14.2396 18.4367 14.4215 18.4366C14.6034 18.4365 14.7828 18.3942 14.9455 18.3131C15.1082 18.2319 15.2497 18.1142 15.359 17.9692C15.7563 17.4349 15.7551 16.5317 15.3564 15.9972C15.2592 15.8618 15.1321 15.7504 14.985 15.6717C14.8378 15.5929 14.6745 15.5488 14.5076 15.5427C14.4801 15.5411 14.4522 15.5403 14.4249 15.5403L14.4251 15.5404Z" fill="#F0A108"/>
<path d="M23.64 20.1102C23.2418 20.1154 22.8465 20.041 22.4776 19.8914C22.1086 19.7418 21.7735 19.52 21.4919 19.2391C21.2214 18.9632 21.0091 18.6361 20.8675 18.2771C20.7259 17.918 20.6579 17.5343 20.6675 17.1486C20.6135 15.317 21.8182 13.9494 23.5324 13.8969C23.5722 13.8957 23.6125 13.895 23.652 13.895C25.4195 13.895 26.6909 15.1068 26.744 16.8416C26.7709 17.7229 26.522 18.497 26.0241 19.0791C25.5288 19.6579 24.8219 20.009 23.9805 20.0932C23.8666 20.1045 23.7522 20.1102 23.64 20.1102ZM23.7063 15.5398C22.9681 15.5398 22.4701 16.1171 22.4669 16.9764C22.4533 17.3346 22.5607 17.6871 22.7718 17.9772C22.8807 18.1186 23.0205 18.2334 23.1805 18.3128C23.3406 18.3922 23.5167 18.4341 23.6955 18.4354C23.8743 18.4367 24.051 18.3973 24.2122 18.3202C24.3734 18.2431 24.5148 18.1304 24.6257 17.9905C25.0409 17.4525 25.0437 16.5367 24.6327 15.9908C24.5346 15.8561 24.4069 15.7456 24.2594 15.6677C24.1118 15.5899 23.9483 15.5467 23.7814 15.5417C23.7564 15.5405 23.7311 15.5398 23.7062 15.5398H23.7063Z" fill="#F0A108"/>
<path d="M20.0417 15.7314C20.0417 16.8362 20.0473 17.941 20.0395 19.0456C20.0425 19.1887 20.0119 19.3304 19.9503 19.4597C19.8888 19.5889 19.7978 19.702 19.6848 19.7901C19.5717 19.8782 19.4396 19.9388 19.299 19.9672C19.1583 19.9955 19.013 19.9908 18.8744 19.9534C18.5132 19.8626 18.2432 19.4804 18.2427 19.0353C18.2399 17.1466 18.2395 15.2579 18.2415 13.3692C18.2415 13.0365 18.2369 12.7038 18.2427 12.3714C18.2522 11.8233 18.6023 11.4673 19.1284 11.462C19.6718 11.4566 20.0363 11.8139 20.0398 12.3816C20.0466 13.498 20.0417 14.6147 20.0417 15.7313" fill="#F0A108"/>
</svg>
